# xmcd
#
# Track frame offsets:
# 150
# 10396
# 27847
# 42629
# 43736
# 61627
# 94021
# 107213
#
# Disc length: 1589 seconds
#
#
# Revision: 0
# Processed by: cddbd v1.5.2PL0 Copyright (c) Steve Scherf et al.
# Submitted via: FreeRIP 2.945 
#
DISCID=62063308
DTITLE=Andrew Goldring and the Rosedale Power Co. - Andrew Goldring and the Rosedale Power Co.
DYEAR=2006
DGENRE=Blues
TTITLE0=Steppin' Out
TTITLE1=She Sings Like A Woman
TTITLE2=Funk 50
TTITLE3=Mary Had A Little Lamb - intro
TTITLE4=Mary Had A Little Lamb
TTITLE5=No Way Out
TTITLE6=Travelin' Blues
TTITLE7=All Of Me
EXTD=Pig's Snout Music, Oinc.\nUPC: 8-37101-20629-7
EXTT0=J. Bracken
EXTT1=A. Goldring, S. Goldring
EXTT2=A. Goldring
EXTT3=
EXTT4=B. Guy
EXTT5=A. Goldring
EXTT6=A. Goldring
EXTT7=S. Simons, G. Marks
PLAYORDER=
